<?xml version="1.0" encoding="utf-8"?>
<!-- Generator: Adobe Illustrator 23.0.1, SVG Export Plug-In . SVG Version: 6.00 Build 0)  -->
<svg version="1.1" id="Capa_1" xmlns="http://www.w3.org/2000/svg" xmlns:xlink="http://www.w3.org/1999/xlink" x="0px" y="0px"
	 viewBox="0 0 40.4 38.8" style="enable-background:new 0 0 40.4 38.8;" xml:space="preserve">
<g id="icons">
	<path id="settings" d="M32.6,22.3l-1.5-0.9c-1.6-1-1.6-3.3,0-4.3l1.5-0.9c1.2-0.7,1.6-2.2,0.9-3.3L32.2,11
		c-0.7-1.2-2.2-1.6-3.3-0.9L27.5,11c-1.6,1-3.6-0.2-3.6-2.1V7.3c0-1.3-1.1-2.4-2.4-2.4H19c-1.3,0-2.4,1.1-2.4,2.4v1.6
		c0,1.8-2.1,3-3.6,2.1l-1.5-0.7C10.2,9.4,8.8,9.9,8.2,11L7,13.1c-0.6,1.2-0.2,2.7,0.9,3.4l1.5,0.9c1.6,0.9,1.6,3.3,0,4.1l-1.5,0.9
		C6.6,23,6.2,24.5,7,25.6l1.2,2.1c0.7,1.2,2.2,1.6,3.3,0.9l1.5-0.7c1.6-1,3.6,0.2,3.6,2.1v1.7c0,1.3,1.1,2.4,2.4,2.4h2.4
		c1.3,0,2.4-1.1,2.4-2.4V30c0-1.8,2.1-3,3.6-2.1l1.5,0.9c1.2,0.7,2.7,0.2,3.3-0.9l1.2-2.1C34,24.5,33.7,23,32.6,22.3z M20.2,24.3
		c-2.7,0-4.9-2.2-4.9-4.9s2.2-4.9,4.9-4.9s4.9,2.2,4.9,4.9S22.9,24.3,20.2,24.3z"/>
</g>
</svg>
