<?xml version="1.0" encoding="utf-8"?>
<!-- Generator: Adobe Illustrator 23.0.1, SVG Export Plug-In . SVG Version: 6.00 Build 0)  -->
<svg version="1.1" id="Capa_1" xmlns="http://www.w3.org/2000/svg" xmlns:xlink="http://www.w3.org/1999/xlink" x="0px" y="0px"
	 viewBox="0 0 305.2 105.2" style="enable-background:new 0 0 305.2 105.2;" xml:space="preserve">
<style type="text/css">
	.st0{fill:#E68900;}
</style>
<g>
	<g>
		<path class="st0" d="M34.7,43H24.2l-1.1,0H22c-2.7,0-3.8-2.2-3.8-4.9v-1.5c0-2.7,1.1-4.9,3.8-4.9h13.7c0.5,0,0.9,0,1.3,0h0.2
			c2.2,0,4.1-1.8,4.1-4.1v-3.2c0-2.2-1.8-4.1-4.1-4.1H24.2v0H12.6C7.3,20.4,3,24.7,3,30v12.5c0,5.7,4.1,10.8,9.5,10.8h9.7
			c3.8,0,5.2,0.8,5.2,5.2v1.6c0,4.6-0.5,5.2-5.2,5.2h-1.5v0h-13c-2.2,0-4.1,1.8-4.1,4.1v3.2c0,2.2,1.8,4.1,4.1,4.1h26.9
			c4.1,0,7.4-3.3,7.4-7.4V50.4C42.1,46.3,38.7,43,34.7,43z M78.2,36.5H69v22.2L56.5,36.5h-9.8v41.1h9.4V54.1l13.3,23.5h8.8V36.5z
			 M93.3,76.8h10v-32h12.5v-8.3H80.8v8.3h12.5V76.8z M144.6,68.5H128v-8.9h15.7V52H128v-7.2h16.6v-8.3h-26.1v40.3h26.1V68.5z
			 M183.1,23.9h-1.4v1.6h1.4V23.9z M176.3,54.1c-0.2-0.3-0.6-0.6-1-0.8c-0.4-0.2-0.8-0.3-1.4-0.3c-0.7,0-1.3,0.2-1.9,0.5
			c-0.6,0.4-1,0.9-1.3,1.6c-0.3,0.7-0.4,1.4-0.4,2.3c0,0.9,0.2,1.6,0.5,2.3c0.3,0.7,0.7,1.2,1.3,1.5c0.6,0.4,1.2,0.6,1.8,0.6
			c1,0,1.8-0.4,2.4-1.3v1.1h1.3V50h-1.4V54.1z M175.7,59.8c-0.4,0.5-1,0.8-1.6,0.8c-0.6,0-1.2-0.3-1.6-0.8c-0.5-0.5-0.7-1.3-0.7-2.4
			c0-1.1,0.2-1.9,0.6-2.4c0.4-0.5,1-0.8,1.6-0.8c0.6,0,1.2,0.3,1.6,0.8c0.4,0.5,0.7,1.4,0.7,2.5C176.4,58.5,176.2,59.3,175.7,59.8z
			 M183.1,27.1h-1.4v8.4h1.4V27.1z M176.3,80.3c-0.2-0.3-0.6-0.6-1-0.8c-0.4-0.2-0.8-0.3-1.4-0.3c-0.7,0-1.3,0.2-1.9,0.5
			c-0.6,0.4-1,0.9-1.3,1.6c-0.3,0.7-0.4,1.4-0.4,2.3c0,0.9,0.2,1.6,0.5,2.3c0.3,0.7,0.7,1.2,1.3,1.5c0.6,0.4,1.2,0.6,1.8,0.6
			c1,0,1.8-0.4,2.4-1.3v1.1h1.3V76.1h-1.4V80.3z M175.7,85.9c-0.4,0.5-1,0.8-1.6,0.8c-0.6,0-1.2-0.3-1.6-0.8
			c-0.5-0.5-0.7-1.3-0.7-2.4c0-1.1,0.2-1.9,0.6-2.4c0.4-0.5,1-0.8,1.6-0.8c0.6,0,1.2,0.3,1.6,0.8c0.4,0.5,0.7,1.4,0.7,2.5
			C176.4,84.7,176.2,85.4,175.7,85.9z M236.3,50h-1.4v1.7h1.4V50z M243.7,26.3l6.1,9.1h1.6V23.9h-1.5V33l-6.1-9.1h-1.6v11.6h1.5
			V26.3z M195.6,35.1c0.6,0.4,1.2,0.6,1.8,0.6c1,0,1.8-0.4,2.4-1.3v1.1h1.3V23.9h-1.4V28c-0.2-0.3-0.6-0.6-1-0.8
			c-0.4-0.2-0.8-0.3-1.4-0.3c-0.7,0-1.3,0.2-1.9,0.5c-0.6,0.4-1,0.9-1.3,1.6c-0.3,0.7-0.4,1.4-0.4,2.3c0,0.9,0.2,1.6,0.5,2.3
			C194.6,34.2,195,34.7,195.6,35.1z M195.9,28.8c0.4-0.5,1-0.8,1.6-0.8c0.6,0,1.2,0.3,1.6,0.8c0.4,0.5,0.7,1.4,0.7,2.5
			c0,1-0.2,1.8-0.7,2.3c-0.4,0.5-1,0.8-1.6,0.8c-0.6,0-1.2-0.3-1.6-0.8c-0.5-0.5-0.7-1.3-0.7-2.4C195.3,30.2,195.5,29.3,195.9,28.8z
			 M256.6,30.6c-0.6,0.1-1,0.1-1.3,0.2c-0.4,0.1-0.7,0.3-1,0.5c-0.3,0.2-0.5,0.5-0.7,0.8c-0.2,0.3-0.3,0.7-0.3,1.1
			c0,0.7,0.2,1.3,0.7,1.7c0.5,0.5,1.2,0.7,2.1,0.7c0.6,0,1.1-0.1,1.6-0.3c0.5-0.2,1-0.5,1.5-1c0,0.4,0.1,0.7,0.3,1h1.5
			c-0.2-0.3-0.3-0.7-0.4-1c-0.1-0.4-0.1-1.2-0.1-2.5V30c0-0.6,0-1.1-0.1-1.3c-0.1-0.4-0.2-0.7-0.4-1c-0.2-0.3-0.5-0.5-1-0.6
			c-0.4-0.2-1-0.3-1.7-0.3c-0.7,0-1.4,0.1-1.9,0.3c-0.5,0.2-1,0.5-1.3,0.8c-0.3,0.4-0.5,0.8-0.6,1.4l1.4,0.2c0.2-0.6,0.4-1,0.7-1.2
			c0.3-0.2,0.8-0.4,1.5-0.4c0.7,0,1.3,0.2,1.6,0.5c0.3,0.2,0.4,0.6,0.4,1.2c0,0.1,0,0.2,0,0.4C258.6,30.3,257.8,30.5,256.6,30.6z
			 M259.2,31.8c0,0.6-0.1,1.1-0.2,1.4c-0.2,0.4-0.5,0.7-0.9,1c-0.4,0.2-0.9,0.4-1.5,0.4c-0.6,0-1-0.1-1.3-0.4
			c-0.3-0.3-0.4-0.6-0.4-1c0-0.2,0.1-0.5,0.2-0.7c0.1-0.2,0.3-0.4,0.6-0.5c0.2-0.1,0.7-0.2,1.2-0.3c1-0.1,1.8-0.3,2.3-0.5V31.8z
			 M278,35.7c0.7,0,1.4-0.2,2-0.5c0.6-0.3,1.1-0.8,1.4-1.4c0.3-0.6,0.5-1.5,0.5-2.6c0-1.3-0.4-2.4-1.1-3.1c-0.7-0.8-1.7-1.1-2.8-1.1
			c-1,0-1.9,0.3-2.6,0.9c-0.9,0.7-1.3,1.9-1.3,3.5c0,1.4,0.4,2.5,1.1,3.3C275.8,35.3,276.8,35.7,278,35.7z M276.2,28.8
			c0.5-0.5,1.1-0.8,1.8-0.8c0.7,0,1.3,0.3,1.8,0.8c0.5,0.5,0.7,1.3,0.7,2.4c0,1.1-0.2,1.9-0.7,2.5c-0.5,0.5-1.1,0.8-1.8,0.8
			c-0.7,0-1.3-0.3-1.8-0.8c-0.5-0.5-0.7-1.3-0.7-2.4C275.5,30.2,275.7,29.4,276.2,28.8z M272.4,23.9H271v1.6h1.4V23.9z M272.4,27.1
			H271v8.4h1.4V27.1z M266.2,35.7c0.9,0,1.7-0.3,2.3-0.8c0.6-0.5,1-1.3,1.2-2.3l-1.4-0.2c-0.1,0.7-0.3,1.2-0.7,1.6
			c-0.4,0.3-0.8,0.5-1.4,0.5c-0.7,0-1.3-0.3-1.7-0.8c-0.4-0.5-0.6-1.3-0.6-2.5c0-1.1,0.2-1.9,0.7-2.4c0.4-0.5,1-0.8,1.7-0.8
			c0.5,0,0.9,0.1,1.2,0.4c0.3,0.3,0.6,0.7,0.7,1.3l1.4-0.2c-0.2-0.9-0.5-1.5-1.1-2c-0.6-0.5-1.3-0.7-2.2-0.7c-0.7,0-1.4,0.2-2,0.5
			c-0.6,0.3-1.1,0.9-1.4,1.5c-0.3,0.7-0.5,1.5-0.5,2.4c0,1.4,0.3,2.5,1,3.2C264.2,35.3,265.1,35.7,266.2,35.7z M210.3,35.7
			c0.9,0,1.7-0.3,2.3-0.8c0.6-0.5,1-1.3,1.2-2.3l-1.4-0.2c-0.1,0.7-0.3,1.2-0.7,1.6c-0.4,0.3-0.8,0.5-1.4,0.5
			c-0.7,0-1.3-0.3-1.7-0.8c-0.4-0.5-0.6-1.3-0.6-2.5c0-1.1,0.2-1.9,0.7-2.4c0.4-0.5,1-0.8,1.7-0.8c0.5,0,0.9,0.1,1.2,0.4
			c0.3,0.3,0.6,0.7,0.7,1.3l1.4-0.2c-0.2-0.9-0.5-1.5-1.1-2c-0.6-0.5-1.3-0.7-2.2-0.7c-0.7,0-1.4,0.2-2,0.5
			c-0.6,0.3-1.1,0.9-1.4,1.5c-0.3,0.7-0.5,1.5-0.5,2.4c0,1.4,0.3,2.5,1,3.2C208.3,35.3,209.2,35.7,210.3,35.7z M204.8,23.9h-1.4v1.6
			h1.4V23.9z M204.8,27.1h-1.4v8.4h1.4V27.1z M232,35.7c0.7,0,1.4-0.2,2-0.5c0.6-0.3,1.1-0.8,1.4-1.4c0.3-0.6,0.5-1.5,0.5-2.6
			c0-1.3-0.4-2.4-1.1-3.1c-0.7-0.8-1.7-1.1-2.8-1.1c-1,0-1.9,0.3-2.6,0.9c-0.9,0.7-1.3,1.9-1.3,3.5c0,1.4,0.4,2.5,1.1,3.3
			C229.9,35.3,230.8,35.7,232,35.7z M230.2,28.8c0.5-0.5,1.1-0.8,1.8-0.8c0.7,0,1.3,0.3,1.8,0.8c0.5,0.5,0.7,1.3,0.7,2.4
			c0,1.1-0.2,1.9-0.7,2.5c-0.5,0.5-1.1,0.8-1.8,0.8c-0.7,0-1.3-0.3-1.8-0.8c-0.5-0.5-0.7-1.3-0.7-2.4
			C229.5,30.2,229.8,29.4,230.2,28.8z M234.9,62c0,0.8-0.1,1.2-0.2,1.4c-0.1,0.2-0.4,0.3-0.6,0.3c-0.2,0-0.4,0-0.7-0.1l-0.3,1.2
			c0.4,0.1,0.7,0.1,1.1,0.1c0.8,0,1.4-0.3,1.7-0.8c0.3-0.4,0.4-1.1,0.4-2.2v-8.9h-1.4V62z M217.9,30.6c-0.6,0.1-1,0.1-1.3,0.2
			c-0.4,0.1-0.7,0.3-1,0.5c-0.3,0.2-0.5,0.5-0.7,0.8c-0.2,0.3-0.3,0.7-0.3,1.1c0,0.7,0.2,1.3,0.7,1.7c0.5,0.5,1.2,0.7,2.1,0.7
			c0.6,0,1.1-0.1,1.6-0.3c0.5-0.2,1-0.5,1.5-1c0,0.4,0.1,0.7,0.3,1h1.5c-0.2-0.3-0.3-0.7-0.4-1c-0.1-0.4-0.1-1.2-0.1-2.5V30
			c0-0.6,0-1.1-0.1-1.3c-0.1-0.4-0.2-0.7-0.4-1c-0.2-0.3-0.5-0.5-1-0.6c-0.4-0.2-1-0.3-1.7-0.3c-0.7,0-1.4,0.1-1.9,0.3
			c-0.5,0.2-1,0.5-1.3,0.8c-0.3,0.4-0.5,0.8-0.6,1.4l1.4,0.2c0.2-0.6,0.4-1,0.7-1.2c0.3-0.2,0.8-0.4,1.5-0.4c0.7,0,1.3,0.2,1.6,0.5
			c0.3,0.2,0.4,0.6,0.4,1.2c0,0.1,0,0.2,0,0.4C219.9,30.3,219,30.5,217.9,30.6z M220.4,31.8c0,0.6-0.1,1.1-0.2,1.4
			c-0.2,0.4-0.5,0.7-0.9,1c-0.4,0.2-0.9,0.4-1.5,0.4c-0.6,0-1-0.1-1.3-0.4c-0.3-0.3-0.4-0.6-0.4-1c0-0.2,0.1-0.5,0.2-0.7
			c0.1-0.2,0.3-0.4,0.6-0.5c0.2-0.1,0.7-0.2,1.2-0.3c1-0.1,1.8-0.3,2.3-0.5V31.8z M224.3,33c0,0.9,0.1,1.4,0.2,1.7
			c0.1,0.3,0.3,0.5,0.6,0.6c0.3,0.2,0.7,0.2,1.2,0.2c0.3,0,0.7,0,1.1-0.1l-0.2-1.3c-0.3,0-0.5,0.1-0.6,0.1c-0.2,0-0.4,0-0.5-0.1
			c-0.1-0.1-0.2-0.2-0.2-0.3c0-0.1-0.1-0.4-0.1-0.8v-4.9h1.4v-1.1h-1.4v-2.9l-1.4,0.9v2.1h-1v1.1h1V33z M213.3,60.5
			c0,0.4,0.1,0.7,0.3,1h1.5c-0.2-0.3-0.3-0.7-0.4-1c-0.1-0.4-0.1-1.2-0.1-2.5v-1.9c0-0.6,0-1.1-0.1-1.3c-0.1-0.4-0.2-0.7-0.4-1
			c-0.2-0.3-0.5-0.5-1-0.6c-0.4-0.2-1-0.3-1.7-0.3c-0.7,0-1.4,0.1-1.9,0.3c-0.5,0.2-1,0.5-1.3,0.8c-0.3,0.4-0.5,0.8-0.6,1.4l1.4,0.2
			c0.2-0.6,0.4-1,0.7-1.2c0.3-0.2,0.8-0.4,1.5-0.4c0.7,0,1.3,0.2,1.6,0.5c0.3,0.2,0.4,0.6,0.4,1.2c0,0.1,0,0.2,0,0.4
			c-0.5,0.2-1.4,0.4-2.5,0.5c-0.6,0.1-1,0.1-1.3,0.2c-0.4,0.1-0.7,0.3-1,0.5c-0.3,0.2-0.5,0.5-0.7,0.8c-0.2,0.3-0.3,0.7-0.3,1.1
			c0,0.7,0.2,1.3,0.7,1.7c0.5,0.5,1.2,0.7,2.1,0.7c0.6,0,1.1-0.1,1.6-0.3C212.3,61.3,212.8,61,213.3,60.5z M209.3,60.3
			c-0.3-0.3-0.4-0.6-0.4-0.9c0-0.2,0.1-0.5,0.2-0.7c0.1-0.2,0.3-0.4,0.6-0.5c0.2-0.1,0.7-0.2,1.2-0.3c1-0.1,1.8-0.3,2.3-0.5v0.5
			c0,0.6-0.1,1.1-0.2,1.4c-0.2,0.4-0.5,0.7-0.9,1c-0.4,0.2-0.9,0.4-1.5,0.4C210,60.7,209.6,60.5,209.3,60.3z M264.7,87.7h1.4v-8.4
			h-1.4V87.7z M264.7,77.7h1.4v-1.6h-1.4V77.7z M271.7,79.1c-1,0-1.9,0.3-2.6,0.9c-0.9,0.8-1.3,1.9-1.3,3.5c0,1.4,0.4,2.5,1.1,3.3
			c0.7,0.8,1.7,1.1,2.9,1.1c0.7,0,1.4-0.2,2-0.5c0.6-0.3,1.1-0.8,1.4-1.4c0.3-0.6,0.5-1.5,0.5-2.6c0-1.3-0.4-2.4-1.1-3.1
			C273.8,79.5,272.8,79.1,271.7,79.1z M273.4,85.9c-0.5,0.5-1.1,0.8-1.8,0.8c-0.7,0-1.3-0.3-1.8-0.8c-0.5-0.5-0.7-1.3-0.7-2.4
			c0-1.1,0.2-1.9,0.7-2.4c0.5-0.5,1.1-0.8,1.8-0.8c0.7,0,1.3,0.3,1.8,0.8c0.5,0.5,0.7,1.3,0.7,2.4C274.1,84.5,273.9,85.4,273.4,85.9
			z M268.6,54.5c0.3,0,0.7,0.1,1,0.3l0.5-1.3c-0.5-0.3-1-0.5-1.5-0.5c-0.3,0-0.6,0.1-0.9,0.3c-0.3,0.2-0.6,0.6-0.9,1.2v-1.3h-1.3
			v8.4h1.4v-4.4c0-0.6,0.1-1.2,0.2-1.7c0.1-0.3,0.3-0.6,0.5-0.8C268,54.5,268.3,54.5,268.6,54.5z M248.8,61.2
			c0.6,0.4,1.2,0.6,1.8,0.6c1,0,1.8-0.4,2.4-1.3v1.1h1.3V50h-1.4v4.2c-0.2-0.3-0.6-0.6-1-0.8c-0.4-0.2-0.8-0.3-1.4-0.3
			c-0.7,0-1.3,0.2-1.9,0.5c-0.6,0.4-1,0.9-1.3,1.6c-0.3,0.7-0.4,1.4-0.4,2.3c0,0.9,0.2,1.6,0.5,2.3
			C247.8,60.3,248.2,60.8,248.8,61.2z M249.1,54.9c0.4-0.5,1-0.8,1.6-0.8c0.6,0,1.2,0.3,1.6,0.8c0.4,0.5,0.7,1.4,0.7,2.5
			c0,1-0.2,1.8-0.7,2.3c-0.4,0.5-1,0.8-1.6,0.8c-0.6,0-1.2-0.3-1.6-0.8c-0.5-0.5-0.7-1.3-0.7-2.4C248.5,56.3,248.7,55.5,249.1,54.9z
			 M261.3,86.2c-0.4,0.3-0.8,0.5-1.4,0.5c-0.7,0-1.3-0.3-1.7-0.8c-0.4-0.5-0.6-1.3-0.6-2.5c0-1.1,0.2-1.9,0.7-2.4
			c0.4-0.5,1-0.8,1.7-0.8c0.5,0,0.9,0.1,1.2,0.4c0.3,0.3,0.6,0.7,0.7,1.3l1.4-0.2c-0.2-0.8-0.5-1.5-1.1-2c-0.6-0.5-1.3-0.7-2.2-0.7
			c-0.7,0-1.4,0.2-2,0.5c-0.6,0.3-1.1,0.9-1.4,1.5c-0.3,0.7-0.5,1.5-0.5,2.4c0,1.4,0.3,2.5,1,3.2c0.7,0.8,1.6,1.1,2.8,1.1
			c0.9,0,1.7-0.3,2.3-0.8c0.6-0.5,1-1.3,1.2-2.3l-1.4-0.2C261.9,85.3,261.7,85.9,261.3,86.2z M260,53c-1,0-1.9,0.3-2.6,0.9
			c-0.9,0.8-1.3,1.9-1.3,3.5c0,1.4,0.4,2.5,1.1,3.3c0.7,0.8,1.7,1.1,2.9,1.1c0.7,0,1.4-0.2,2-0.5c0.6-0.3,1.1-0.8,1.4-1.4
			c0.3-0.6,0.5-1.5,0.5-2.6c0-1.3-0.4-2.4-1.1-3.1C262.1,53.4,261.1,53,260,53z M261.7,59.8c-0.5,0.5-1.1,0.8-1.8,0.8
			c-0.7,0-1.3-0.3-1.8-0.8c-0.5-0.5-0.7-1.3-0.7-2.4c0-1.1,0.2-1.9,0.7-2.4c0.5-0.5,1.1-0.8,1.8-0.8c0.7,0,1.3,0.3,1.8,0.8
			c0.5,0.5,0.7,1.3,0.7,2.4C262.4,58.4,262.2,59.2,261.7,59.8z M254.3,84.2v-1.9c0-0.6,0-1.1-0.1-1.3c-0.1-0.4-0.2-0.7-0.4-1
			c-0.2-0.3-0.5-0.5-1-0.6c-0.4-0.2-1-0.3-1.7-0.3c-0.7,0-1.4,0.1-1.9,0.3c-0.5,0.2-1,0.5-1.3,0.8c-0.3,0.4-0.5,0.8-0.6,1.4l1.4,0.2
			c0.2-0.6,0.4-1,0.7-1.2c0.3-0.2,0.8-0.4,1.5-0.4c0.7,0,1.3,0.2,1.6,0.5c0.3,0.2,0.4,0.6,0.4,1.2c0,0.1,0,0.2,0,0.4
			c-0.5,0.2-1.4,0.4-2.5,0.5c-0.6,0.1-1,0.1-1.3,0.2c-0.4,0.1-0.7,0.3-1,0.5c-0.3,0.2-0.5,0.5-0.7,0.8c-0.2,0.3-0.3,0.7-0.3,1.1
			c0,0.7,0.2,1.3,0.7,1.7c0.5,0.5,1.2,0.7,2.1,0.7c0.6,0,1.1-0.1,1.6-0.3c0.5-0.2,1-0.5,1.5-0.9c0,0.4,0.1,0.7,0.3,1h1.5
			c-0.2-0.3-0.3-0.7-0.4-1C254.4,86.3,254.3,85.5,254.3,84.2z M252.9,84c0,0.6-0.1,1.1-0.2,1.4c-0.2,0.4-0.5,0.7-0.9,1
			c-0.4,0.2-0.9,0.4-1.5,0.4c-0.6,0-1-0.1-1.3-0.4c-0.3-0.3-0.4-0.6-0.4-0.9c0-0.2,0.1-0.5,0.2-0.7c0.1-0.2,0.3-0.4,0.6-0.5
			c0.2-0.1,0.7-0.2,1.2-0.3c1-0.1,1.8-0.3,2.3-0.5V84z M289.9,27.9c-0.2-0.3-0.5-0.5-1-0.7c-0.4-0.2-0.9-0.3-1.4-0.3
			c-1.2,0-2.1,0.5-2.7,1.4v-1.2h-1.3v8.4h1.4v-4.6c0-1.1,0.2-1.8,0.7-2.2c0.4-0.4,1-0.6,1.6-0.6c0.4,0,0.7,0.1,1,0.3
			c0.3,0.2,0.5,0.4,0.6,0.7c0.1,0.3,0.2,0.7,0.2,1.3v5.1h1.4v-5.2c0-0.7,0-1.1-0.1-1.4C290.2,28.5,290.1,28.1,289.9,27.9z
			 M299.4,31.9V30c0-0.6,0-1.1-0.1-1.3c-0.1-0.4-0.2-0.7-0.4-1c-0.2-0.3-0.5-0.5-1-0.6c-0.4-0.2-1-0.3-1.7-0.3
			c-0.7,0-1.4,0.1-1.9,0.3c-0.5,0.2-1,0.5-1.3,0.8c-0.3,0.4-0.5,0.8-0.6,1.4l1.4,0.2c0.2-0.6,0.4-1,0.7-1.2c0.3-0.2,0.8-0.4,1.5-0.4
			c0.7,0,1.3,0.2,1.6,0.5c0.3,0.2,0.4,0.6,0.4,1.2c0,0.1,0,0.2,0,0.4c-0.5,0.2-1.4,0.4-2.5,0.5c-0.6,0.1-1,0.1-1.3,0.2
			c-0.4,0.1-0.7,0.3-1,0.5c-0.3,0.2-0.5,0.5-0.7,0.8c-0.2,0.3-0.3,0.7-0.3,1.1c0,0.7,0.2,1.3,0.7,1.7c0.5,0.5,1.2,0.7,2.1,0.7
			c0.6,0,1.1-0.1,1.6-0.3c0.5-0.2,1-0.5,1.5-1c0,0.4,0.1,0.7,0.3,1h1.5c-0.2-0.3-0.3-0.7-0.4-1C299.4,34.1,299.4,33.3,299.4,31.9z
			 M298,31.8c0,0.6-0.1,1.1-0.2,1.4c-0.2,0.4-0.5,0.7-0.9,1c-0.4,0.2-0.9,0.4-1.5,0.4c-0.6,0-1-0.1-1.3-0.4c-0.3-0.3-0.4-0.6-0.4-1
			c0-0.2,0.1-0.5,0.2-0.7c0.1-0.2,0.3-0.4,0.6-0.5c0.2-0.1,0.7-0.2,1.2-0.3c1-0.1,1.8-0.3,2.3-0.5V31.8z M301.6,23.9v11.6h1.4V23.9
			H301.6z M278.2,59.1l-1.5-0.2c-0.2,0.6-0.5,1-0.9,1.3c-0.4,0.3-0.8,0.4-1.3,0.4c-0.7,0-1.3-0.2-1.8-0.7c-0.5-0.5-0.7-1.2-0.8-2.1
			h6.3c0-0.2,0-0.3,0-0.4c0-1.4-0.4-2.5-1.1-3.2c-0.7-0.8-1.6-1.1-2.8-1.1c-1.2,0-2.1,0.4-2.8,1.2c-0.7,0.8-1.1,1.9-1.1,3.3
			c0,1.4,0.4,2.4,1.1,3.2c0.7,0.8,1.7,1.1,2.9,1.1c1,0,1.8-0.2,2.4-0.7C277.5,60.6,278,59.9,278.2,59.1z M272.8,54.8
			c0.4-0.4,1-0.7,1.7-0.7c0.7,0,1.3,0.3,1.8,0.8c0.3,0.4,0.5,0.9,0.5,1.6H272C272.1,55.8,272.3,55.2,272.8,54.8z M273.8,76h-1.9
			l-1.1,2.2h1.2L273.8,76z M283.6,80.1c-0.2-0.3-0.5-0.5-1-0.7c-0.4-0.2-0.9-0.3-1.4-0.3c-1.2,0-2.1,0.5-2.7,1.4v-1.2h-1.3v8.4h1.4
			v-4.6c0-1.1,0.2-1.8,0.7-2.2c0.4-0.4,1-0.6,1.6-0.6c0.4,0,0.7,0.1,1,0.3c0.3,0.2,0.5,0.4,0.6,0.7c0.1,0.3,0.2,0.7,0.2,1.3v5.1h1.4
			v-5.2c0-0.7,0-1.1-0.1-1.4C283.9,80.7,283.8,80.4,283.6,80.1z M285.1,57.1c-0.4-0.2-1.1-0.4-2.1-0.7c-0.7-0.2-1.1-0.3-1.3-0.4
			c-0.2-0.1-0.4-0.2-0.5-0.4c-0.1-0.1-0.2-0.3-0.2-0.5c0-0.3,0.1-0.5,0.4-0.8c0.3-0.2,0.7-0.3,1.4-0.3c0.6,0,1,0.1,1.3,0.4
			c0.3,0.2,0.5,0.6,0.6,1l1.4-0.2c-0.1-0.5-0.3-1-0.5-1.3c-0.2-0.3-0.6-0.6-1.1-0.8c-0.5-0.2-1.1-0.3-1.7-0.3
			c-0.4,0-0.8,0.1-1.2,0.2c-0.4,0.1-0.7,0.3-0.9,0.4c-0.3,0.2-0.5,0.5-0.7,0.8c-0.2,0.3-0.3,0.7-0.3,1c0,0.4,0.1,0.8,0.3,1.1
			c0.2,0.3,0.5,0.6,0.9,0.8c0.4,0.2,1.1,0.4,2.2,0.7c0.8,0.2,1.3,0.4,1.5,0.5c0.3,0.2,0.4,0.4,0.4,0.8c0,0.4-0.2,0.7-0.5,0.9
			c-0.3,0.3-0.8,0.4-1.5,0.4c-0.6,0-1.2-0.1-1.5-0.5c-0.4-0.3-0.6-0.7-0.7-1.3l-1.4,0.2c0.2,0.9,0.5,1.6,1.1,2
			c0.6,0.5,1.4,0.7,2.5,0.7c0.7,0,1.3-0.1,1.8-0.3c0.5-0.2,0.9-0.6,1.2-1c0.3-0.4,0.4-0.9,0.4-1.3c0-0.5-0.1-0.9-0.3-1.2
			C285.8,57.6,285.5,57.3,285.1,57.1z M197.8,61.6V51.3h3.8V50h-9.2v1.4h3.8v10.2H197.8z M179.3,30.5c-0.3-0.5-0.8-0.9-1.5-1.2
			c-0.5-0.2-1.3-0.5-2.6-0.7c-1.2-0.3-2-0.6-2.3-0.8c-0.3-0.3-0.5-0.6-0.5-1c0-0.5,0.2-0.9,0.6-1.2c0.4-0.3,1.1-0.5,2-0.5
			c0.9,0,1.6,0.2,2,0.6c0.5,0.4,0.7,0.9,0.8,1.7l1.5-0.1c0-0.7-0.2-1.3-0.6-1.8c-0.4-0.5-0.9-0.9-1.5-1.2c-0.7-0.3-1.4-0.4-2.3-0.4
			c-0.8,0-1.5,0.1-2.1,0.4c-0.6,0.3-1.1,0.7-1.5,1.2c-0.3,0.5-0.5,1.1-0.5,1.6c0,0.5,0.1,1,0.4,1.4c0.3,0.4,0.7,0.8,1.2,1.1
			c0.4,0.2,1.2,0.5,2.2,0.7c1.1,0.3,1.8,0.4,2.1,0.6c0.5,0.2,0.8,0.4,1,0.7c0.2,0.3,0.3,0.6,0.3,1c0,0.4-0.1,0.7-0.3,1
			c-0.2,0.3-0.6,0.5-1,0.7c-0.4,0.2-1,0.3-1.6,0.3c-0.7,0-1.3-0.1-1.8-0.3c-0.5-0.2-0.9-0.5-1.2-0.9c-0.3-0.4-0.4-0.8-0.5-1.4
			l-1.4,0.1c0,0.8,0.2,1.5,0.6,2.1c0.4,0.6,1,1.1,1.7,1.4c0.7,0.3,1.6,0.5,2.6,0.5c0.8,0,1.6-0.2,2.2-0.5c0.7-0.3,1.2-0.7,1.5-1.3
			c0.4-0.5,0.5-1.1,0.5-1.7C179.8,31.6,179.6,31,179.3,30.5z M193.4,87.7h1.4V76.1h-1.4V87.7z M204.6,53.3c-0.3,0.2-0.6,0.6-0.9,1.2
			v-1.3h-1.3v8.4h1.4v-4.4c0-0.6,0.1-1.2,0.2-1.7c0.1-0.3,0.3-0.6,0.5-0.8c0.2-0.2,0.5-0.3,0.8-0.3c0.3,0,0.7,0.1,1,0.3l0.5-1.3
			c-0.5-0.3-1-0.5-1.5-0.5C205.2,53,204.9,53.1,204.6,53.3z M203.8,84.2v-1.9c0-0.6,0-1.1-0.1-1.3c-0.1-0.4-0.2-0.7-0.4-1
			c-0.2-0.3-0.5-0.5-1-0.6c-0.4-0.2-1-0.3-1.7-0.3c-0.7,0-1.4,0.1-1.9,0.3c-0.5,0.2-1,0.5-1.3,0.8c-0.3,0.4-0.5,0.8-0.6,1.4l1.4,0.2
			c0.2-0.6,0.4-1,0.7-1.2c0.3-0.2,0.8-0.4,1.5-0.4c0.7,0,1.3,0.2,1.6,0.5c0.3,0.2,0.4,0.6,0.4,1.2c0,0.1,0,0.2,0,0.4
			c-0.5,0.2-1.4,0.4-2.5,0.5c-0.6,0.1-1,0.1-1.3,0.2c-0.4,0.1-0.7,0.3-1,0.5c-0.3,0.2-0.5,0.5-0.7,0.8c-0.2,0.3-0.3,0.7-0.3,1.1
			c0,0.7,0.2,1.3,0.7,1.7c0.5,0.5,1.2,0.7,2.1,0.7c0.6,0,1.1-0.1,1.6-0.3c0.5-0.2,1-0.5,1.5-0.9c0,0.4,0.1,0.7,0.3,1h1.5
			c-0.2-0.3-0.3-0.7-0.4-1C203.9,86.3,203.8,85.5,203.8,84.2z M202.4,84c0,0.6-0.1,1.1-0.2,1.4c-0.2,0.4-0.5,0.7-0.9,1
			c-0.4,0.2-0.9,0.4-1.5,0.4c-0.6,0-1-0.1-1.3-0.4c-0.3-0.3-0.4-0.6-0.4-0.9c0-0.2,0.1-0.5,0.2-0.7c0.1-0.2,0.3-0.4,0.6-0.5
			c0.2-0.1,0.7-0.2,1.2-0.3c1-0.1,1.8-0.3,2.3-0.5V84z M244.2,86.2c-0.4,0.3-0.8,0.5-1.4,0.5c-0.7,0-1.3-0.3-1.7-0.8
			c-0.4-0.5-0.6-1.3-0.6-2.5c0-1.1,0.2-1.9,0.7-2.4c0.4-0.5,1-0.8,1.7-0.8c0.5,0,0.9,0.1,1.2,0.4c0.3,0.3,0.6,0.7,0.7,1.3l1.4-0.2
			c-0.2-0.8-0.5-1.5-1.1-2c-0.6-0.5-1.3-0.7-2.2-0.7c-0.7,0-1.4,0.2-2,0.5c-0.6,0.3-1.1,0.9-1.4,1.5c-0.3,0.7-0.5,1.5-0.5,2.4
			c0,1.4,0.3,2.5,1,3.2c0.7,0.8,1.6,1.1,2.8,1.1c0.9,0,1.7-0.3,2.3-0.8c0.6-0.5,1-1.3,1.2-2.3l-1.4-0.2
			C244.8,85.3,244.6,85.9,244.2,86.2z M183.4,53c-1.2,0-2.1,0.4-2.8,1.2c-0.7,0.8-1.1,1.9-1.1,3.3c0,1.4,0.4,2.4,1.1,3.2
			c0.7,0.8,1.7,1.1,2.9,1.1c1,0,1.8-0.2,2.4-0.7c0.6-0.5,1.1-1.1,1.3-2l-1.5-0.2c-0.2,0.6-0.5,1-0.9,1.3c-0.4,0.3-0.8,0.4-1.3,0.4
			c-0.7,0-1.3-0.2-1.8-0.7c-0.5-0.5-0.7-1.2-0.8-2.1h6.3c0-0.2,0-0.3,0-0.4c0-1.4-0.4-2.5-1.1-3.2C185.4,53.4,184.5,53,183.4,53z
			 M181,56.6c0-0.7,0.3-1.3,0.7-1.8c0.4-0.4,1-0.7,1.7-0.7c0.7,0,1.3,0.3,1.8,0.8c0.3,0.4,0.5,0.9,0.5,1.6H181z M191.6,27.9
			c-0.2-0.3-0.5-0.5-1-0.7c-0.4-0.2-0.9-0.3-1.4-0.3c-1.2,0-2.1,0.5-2.7,1.4v-1.2h-1.3v8.4h1.4v-4.6c0-1.1,0.2-1.8,0.7-2.2
			c0.4-0.4,1-0.6,1.6-0.6c0.4,0,0.7,0.1,1,0.3c0.3,0.2,0.5,0.4,0.6,0.7c0.1,0.3,0.2,0.7,0.2,1.3v5.1h1.4v-5.2c0-0.7,0-1.1-0.1-1.4
			C192,28.5,191.8,28.1,191.6,27.9z M183.4,79.1c-1.2,0-2.1,0.4-2.8,1.2c-0.7,0.8-1.1,1.9-1.1,3.3c0,1.4,0.4,2.4,1.1,3.2
			c0.7,0.8,1.7,1.1,2.9,1.1c1,0,1.8-0.2,2.4-0.7c0.6-0.5,1.1-1.1,1.3-2l-1.5-0.2c-0.2,0.6-0.5,1-0.9,1.3c-0.4,0.3-0.8,0.4-1.3,0.4
			c-0.7,0-1.3-0.2-1.8-0.7c-0.5-0.5-0.7-1.2-0.8-2.1h6.3c0-0.2,0-0.3,0-0.4c0-1.4-0.4-2.5-1.1-3.2C185.4,79.5,184.5,79.1,183.4,79.1
			z M181,82.7c0-0.7,0.3-1.3,0.7-1.8c0.4-0.4,1-0.7,1.7-0.7c0.7,0,1.3,0.3,1.8,0.8c0.3,0.4,0.5,0.9,0.5,1.6H181z M212.3,82.4h6.4V81
			h-6.4v-3.6h6.9v-1.4h-8.4v11.6h8.7v-1.4h-7.1V82.4z M242.5,61.5c0.5-0.2,1-0.5,1.5-0.9c0,0.4,0.1,0.7,0.3,1h1.5
			c-0.2-0.3-0.3-0.7-0.4-1c-0.1-0.4-0.1-1.2-0.1-2.5v-1.9c0-0.6,0-1.1-0.1-1.3c-0.1-0.4-0.2-0.7-0.4-1c-0.2-0.3-0.5-0.5-1-0.6
			c-0.4-0.2-1-0.3-1.7-0.3c-0.7,0-1.4,0.1-1.9,0.3c-0.5,0.2-1,0.5-1.3,0.8c-0.3,0.4-0.5,0.8-0.6,1.4l1.4,0.2c0.2-0.6,0.4-1,0.7-1.2
			c0.3-0.2,0.8-0.4,1.5-0.4c0.7,0,1.3,0.2,1.6,0.5c0.3,0.2,0.4,0.6,0.4,1.2c0,0.1,0,0.2,0,0.4c-0.5,0.2-1.4,0.4-2.5,0.5
			c-0.6,0.1-1,0.1-1.3,0.2c-0.4,0.1-0.7,0.3-1,0.5c-0.3,0.2-0.5,0.5-0.7,0.8c-0.2,0.3-0.3,0.7-0.3,1.1c0,0.7,0.2,1.3,0.7,1.7
			c0.5,0.5,1.2,0.7,2.1,0.7C241.5,61.8,242,61.7,242.5,61.5z M239.5,59.3c0-0.2,0.1-0.5,0.2-0.7c0.1-0.2,0.3-0.4,0.6-0.5
			c0.2-0.1,0.7-0.2,1.2-0.3c1-0.1,1.8-0.3,2.3-0.5v0.5c0,0.6-0.1,1.1-0.2,1.4c-0.2,0.4-0.5,0.7-0.9,1c-0.4,0.2-0.9,0.4-1.5,0.4
			c-0.6,0-1-0.1-1.3-0.4C239.7,60,239.5,59.7,239.5,59.3z M231.7,61.6h1.5c-0.2-0.3-0.3-0.7-0.4-1c-0.1-0.4-0.1-1.2-0.1-2.5v-1.9
			c0-0.6,0-1.1-0.1-1.3c-0.1-0.4-0.2-0.7-0.4-1c-0.2-0.3-0.5-0.5-1-0.6c-0.4-0.2-1-0.3-1.7-0.3c-0.7,0-1.4,0.1-1.9,0.3
			c-0.5,0.2-1,0.5-1.3,0.8c-0.3,0.4-0.5,0.8-0.6,1.4l1.4,0.2c0.2-0.6,0.4-1,0.7-1.2c0.3-0.2,0.8-0.4,1.5-0.4c0.7,0,1.3,0.2,1.6,0.5
			c0.3,0.2,0.4,0.6,0.4,1.2c0,0.1,0,0.2,0,0.4c-0.5,0.2-1.4,0.4-2.5,0.5c-0.6,0.1-1,0.1-1.3,0.2c-0.4,0.1-0.7,0.3-1,0.5
			c-0.3,0.2-0.5,0.5-0.7,0.8c-0.2,0.3-0.3,0.7-0.3,1.1c0,0.7,0.2,1.3,0.7,1.7c0.5,0.5,1.2,0.7,2.1,0.7c0.6,0,1.1-0.1,1.6-0.3
			c0.5-0.2,1-0.5,1.5-0.9C231.4,60.9,231.5,61.3,231.7,61.6z M231.3,57.9c0,0.6-0.1,1.1-0.2,1.4c-0.2,0.4-0.5,0.7-0.9,1
			c-0.4,0.2-0.9,0.4-1.5,0.4c-0.6,0-1-0.1-1.3-0.4c-0.3-0.3-0.4-0.6-0.4-0.9c0-0.2,0.1-0.5,0.2-0.7c0.1-0.2,0.3-0.4,0.6-0.5
			c0.2-0.1,0.7-0.2,1.2-0.3c1-0.1,1.8-0.3,2.3-0.5V57.9z M235.8,83.8c0,0.7-0.1,1.3-0.2,1.6c-0.2,0.4-0.4,0.7-0.8,0.9
			c-0.4,0.2-0.8,0.3-1.2,0.3c-0.4,0-0.8-0.1-1.1-0.3c-0.3-0.2-0.5-0.5-0.6-0.9c-0.1-0.3-0.1-0.8-0.1-1.5v-4.7h-1.4v5.2
			c0,0.6,0,1.1,0.1,1.3c0.1,0.4,0.2,0.8,0.4,1.1c0.2,0.3,0.5,0.5,1,0.7c0.4,0.2,0.9,0.3,1.4,0.3c1.1,0,2-0.5,2.7-1.4v1.2h1.3v-8.4
			h-1.4V83.8z M226.7,80.3c-0.2-0.3-0.6-0.6-1-0.8c-0.4-0.2-0.8-0.3-1.4-0.3c-0.7,0-1.3,0.2-1.9,0.5c-0.6,0.4-1,0.9-1.3,1.6
			c-0.3,0.7-0.4,1.4-0.4,2.3c0,0.9,0.2,1.6,0.5,2.3c0.3,0.7,0.7,1.2,1.3,1.5c0.6,0.4,1.2,0.6,1.8,0.6c1,0,1.8-0.4,2.4-1.3v1.1h1.3
			V76.1h-1.4V80.3z M226.2,85.9c-0.4,0.5-1,0.8-1.6,0.8c-0.6,0-1.2-0.3-1.6-0.8c-0.5-0.5-0.7-1.3-0.7-2.4c0-1.1,0.2-1.9,0.6-2.4
			c0.4-0.5,1-0.8,1.6-0.8c0.6,0,1.2,0.3,1.6,0.8c0.4,0.5,0.7,1.4,0.7,2.5C226.9,84.7,226.6,85.4,226.2,85.9z M224.1,57.2
			c0-0.6-0.1-1.2-0.3-1.7c-0.2-0.5-0.4-1-0.7-1.4c-0.3-0.4-0.7-0.7-1.1-0.9c-0.5-0.2-1-0.3-1.5-0.3c-0.9,0-1.7,0.4-2.3,1.1V50h-1.4
			v11.6h1.3v-1.1c0.6,0.8,1.3,1.2,2.3,1.2c1,0,1.9-0.4,2.6-1.2C223.8,59.8,224.1,58.7,224.1,57.2z M222,59.8c-0.5,0.5-1,0.8-1.6,0.8
			c-0.8,0-1.4-0.4-1.8-1.1c-0.3-0.4-0.4-1.2-0.4-2.2c0-1,0.2-1.8,0.7-2.3c0.5-0.5,1-0.8,1.6-0.8c0.6,0,1.1,0.3,1.6,0.8
			c0.4,0.5,0.7,1.3,0.7,2.4C222.7,58.4,222.5,59.2,222,59.8z M120.4,25.6h35.9v61.9H117l-7.1-7.1l-7.5,7.1H74.6v2.2h28.7l6.6-6.2
			l6.2,6.2h42.4V23.4h-38.1V25.6z"/>
	</g>
</g>
</svg>
