<?xml version="1.0" encoding="utf-8"?>
<!-- Generator: Adobe Illustrator 23.0.1, SVG Export Plug-In . SVG Version: 6.00 Build 0)  -->
<svg version="1.1" id="Capa_1" xmlns="http://www.w3.org/2000/svg" xmlns:xlink="http://www.w3.org/1999/xlink" x="0px" y="0px"
	 viewBox="0 0 33.6 35.2" style="enable-background:new 0 0 33.6 35.2;" xml:space="preserve">
<style type="text/css">
	.st0{fill:#797A7A;}
</style>
<g id="icons">
	<path id="settings" class="st0" d="M28.9,20.1l-1.5-0.9c-1.6-1-1.6-3.3,0-4.3l1.5-0.9c1.2-0.7,1.6-2.2,0.9-3.3l-1.2-2.1
		c-0.7-1.2-2.2-1.6-3.3-0.9l-1.5,0.9c-1.6,1-3.7-0.2-3.7-2.1V5c0-1.3-1.1-2.4-2.4-2.4h-2.4c-1.3,0-2.4,1.1-2.4,2.4v1.6
		c0,1.8-2.1,3.1-3.7,2.1L7.6,7.9C6.4,7.2,4.9,7.7,4.3,8.8l-1.2,2.1c-0.6,1.2-0.2,2.7,0.9,3.4l1.5,0.9C7,16,7,18.4,5.4,19.3l-1.5,0.9
		c-1.2,0.7-1.6,2.2-0.9,3.3l1.2,2.1c0.7,1.2,2.2,1.6,3.3,0.9l1.5-0.7c1.6-1,3.7,0.2,3.7,2.1v1.7c0,1.3,1.1,2.4,2.4,2.4h2.4
		c1.3,0,2.4-1.1,2.4-2.4v-1.6c0-1.8,2.1-3.1,3.7-2.1l1.5,0.9c1.2,0.7,2.7,0.2,3.3-0.9l1.2-2.1C30.4,22.3,30,20.9,28.9,20.1z
		 M16.4,22.1c-2.7,0-4.9-2.2-4.9-4.9s2.2-4.9,4.9-4.9s4.9,2.2,4.9,4.9S19.1,22.1,16.4,22.1z"/>
</g>
</svg>
